inDegrees=yes
name=ik_lifting_orientations
DataType=double
version=3
OpenSimVersion=4.5-2024-01-10-34fd6af
endheader
time	pelvis_tilt	pelvis_list	pelvis_rotation	pelvis_tx	pelvis_ty	pelvis_tz	hip_flexion_r	hip_adduction_r	hip_rotation_r	knee_angle_r	knee_angle_r_beta	ankle_angle_r	subtalar_angle_r	mtp_angle_r	hip_flexion_l	hip_adduction_l	hip_rotation_l	knee_angle_l	knee_angle_l_beta	ankle_angle_l	subtalar_angle_l	mtp_angle_l	lumbar_extension	lumbar_bending	lumbar_rotation	arm_flex_r	arm_add_r	arm_rot_r	elbow_flex_r	pro_sup_r	wrist_flex_r	wrist_dev_r	arm_flex_l	arm_add_l	arm_rot_l	elbow_flex_l	pro_sup_l	wrist_flex_l	wrist_dev_l
1.19	0.7706774344512966	0.6710618438220509	-99.07897306319921	0	0.9399999998679526	0	44.05450865920131	-14.39743387770751	0	59.36713605175827	1.036151991582609	-7.367975923809546	0	0	44.05450865920131	-14.39743387770751	0	59.36713605175827	1.036151991582609	-7.367975923809546	0	0	-5.430556255478481	4.330114931983704	1.348734385818085	73.04302393421318	-0.1891992151141248	63.13430081349301	26.44296286239457	4.694037739310981	0	0	0	-7.907700845045125	0	85.3837264143292	4.694037739310981	0	0
1.2	0.6090307147811261	0.5263668967273445	-99.17036527287641	0	0.9399999998679526	0	44.05750432369572	-14.36276496939544	0	59.36910438070344	1.036186345403464	-7.345488113145819	0	0	44.05750432369572	-14.36276496939544	0	59.36910438070344	1.036186345403464	-7.345488113145819	0	0	-5.472605516664759	4.334827429800269	1.591177745186825	73.43062398382321	2.679418687821737	63.11007291750862	26.69717918197392	4.682696226472574	0	0	0	-7.921265356274325	0	85.39487913011915	4.682696226472574	0	0
1.21	0.4911481234633356	0.4373458623599771	-99.41799350082455	0	0.9399999998679526	0	44.05988602770241	-14.33472490423688	0	59.3706561294724	1.036213428528646	-7.327218783326582	0	0	44.05988602770241	-14.33472490423688	0	59.3706561294724	1.036213428528646	-7.327218783326582	0	0	-5.281615669260964	4.089522175994154	2.587305553432761	73.94003504703298	5.412880593750137	62.64881710620086	25.27377821172999	4.673709585255406	0	0	0	-7.931986921487491	0	85.4037161615842	4.673709585255406	0	0
1.22	0.4234120970549929	0.3629685058508449	-99.53299998257326	0	0.9399999998679526	0	44.06232282903726	-14.30612280345824	0	59.37224237397017	1.036241113717874	-7.308606158101004	0	0	44.06232282903726	-14.30612280345824	0	59.37224237397017	1.036241113717874	-7.308606158101004	0	0	-5.253483040799704	3.980227431166127	3.285332442928307	74.59427230200956	8.306367839877792	62.55564643731563	24.15548135839499	4.664512159554044	0	0	0	-7.942961825945877	0	85.41276046953021	4.664512159554044	0	0
1.23	0.3650732355934169	0.3360359053639086	-99.62818446008899	0	0.9399999998679526	0	44.06534942970239	-14.27114921852766	0	59.37423444130379	1.036275881851767	-7.285913293396785	0	0	44.06534942970239	-14.27114921852766	0	59.37423444130379	1.036275881851767	-7.285913293396785	0	0	-5.027158823095812	3.687617856134986	5.015923079831897	75.01240425571009	9.981134573600137	62.1464512642611	23.34240293166161	4.653043206173115	0	0	0	-7.956689715583027	0	85.42403851043804	4.653043206173115	0	0
1.24	0.3720626775005844	0.3120611351403025	-99.88560251788053	0	0.9399999998679526	0	44.06767632510918	-14.24319443502679	0	59.37572591649968	1.036301913004647	-7.267631922966666	0	0	44.06767632510918	-14.24319443502679	0	59.37572591649968	1.036301913004647	-7.267631922966666	0	0	-4.908870562176331	3.460287300915781	5.918053390437701	75.56581931589906	12.53109404574366	61.88467743856958	22.31072147648944	4.644307674667816	0	0	0	-7.967070908080188	0	85.43262859317232	4.644307674667816	0	0
1.25	0.4040561671954352	0.3387349654983474	-99.97853380372253	0	0.9399999998679526	0	44.07044311962375	-14.2105058693181	0	59.37751101872696	1.036333068915998	-7.246349310612704	0	0	44.07044311962375	-14.2105058693181	0	59.37751101872696	1.036333068915998	-7.246349310612704	0	0	-4.6378189176145	3.180543673108753	6.85596310622962	77.12315314234309	17.1567360138192	61.21012157515177	18.64124260335197	4.633886268511326	0	0	0	-7.979485629371262	0	85.44287649553196	4.633886268511326	0	0
1.26	0.5552759428974918	0.4623621875328751	-100.2043334400951	0	0.9399999998679526	0	44.07272061106158	-14.18301239119443	0	59.37896601023813	1.036358463308456	-7.228350032155765	0	0	44.07272061106158	-14.18301239119443	0	59.37896601023813	1.036358463308456	-7.228350032155765	0	0	-4.195033586002515	2.868823808838144	6.61605418525114	77.56227298357319	20.46843394697518	60.86626202316853	17.39763794433632	4.625344994054204	0	0	0	-7.989628340010888	0	85.4512755525456	4.625344994054204	0	0
1.27	0.67369691411771	0.5787729746412076	-100.3134810494004	0	0.9399999998679526	0	44.07548286708901	-14.15089511189204	0	59.3807593545805	1.036389763071853	-7.207525088107251	0	0	44.07548286708901	-14.15089511189204	0	59.3807593545805	1.036389763071853	-7.207525088107251	0	0	-3.76027363063576	2.608314428544406	6.145297889643022	78.94097777391954	26.03265659455619	59.99442413371757	13.78181787983603	4.614906505794283	0	0	0	-8.002093668984617	0	85.46154026802458	4.614906505794283	0	0
1.28	0.8479879890942955	0.699296859706073	-100.3359381223069	0	0.9399999998679526	0	44.07775866259568	-14.12377404949005	0	59.38221711670054	1.036415205820558	-7.189838941094344	0	0	44.07775866259568	-14.12377404949005	0	59.38221711670054	1.036415205820558	-7.189838941094344	0	0	-3.25319029551683	2.243364789283227	5.726892148846496	79.4618377112225	28.5765250676244	58.94265779468101	12.93329830807433	4.606352393867468	0	0	0	-8.012267753581099	0	85.46995195733285	4.606352393867468	0	0
1.29	0.9715545014770068	0.8116774614194625	-100.3953647897496	0	0.9399999998679526	0	44.08108577403554	-14.08649078159069	0	59.38439524802255	1.036453221383668	-7.165941065467639	0	0	44.08108577403554	-14.08649078159069	0	59.38439524802255	1.036453221383668	-7.165941065467639	0	0	-2.8483115105409	1.775662241404587	8.13315594680563	80.20133751373126	28.2962212408908	56.9019251405289	13.85834906608174	4.593702079549814	0	0	0	-8.027438287781747	0	85.482391709665	4.593702079549814	0	0
1.3	1.140703370636334	0.9431818634973173	-100.5449400757591	0	0.9399999998679526	0	44.08285250145584	-14.06509718105326	0	59.38551291447182	1.036472728343147	-7.151949736500233	0	0	44.08285250145584	-14.06509718105326	0	59.38551291447182	1.036472728343147	-7.151949736500233	0	0	-2.467946129906438	1.457045980053394	8.543624987859074	80.99380992224538	29.89598520358026	55.6442447567023	13.01707480868954	4.587088542731676	0	0	0	-8.03527927437854	0	85.48889512219311	4.587088542731676	0	0
1.31	1.31062257169137	1.078566208387348	-100.7636165809921	0	0.9399999998679526	0	44.08604591557194	-14.02965204248496	0	59.38760672550983	1.036509272239675	-7.129296020791632	0	0	44.08604591557194	-14.02965204248496	0	59.38760672550983	1.036509272239675	-7.129296020791632	0	0	-2.038819829748538	1.129900332648421	8.815133903127439	81.61213278095411	31.56028825238222	54.23945572185718	13.36048401933448	4.574926330879602	0	0	0	-8.0498815476818	0	85.50085490506198	4.574926330879602	0	0
1.32	1.467053414711317	1.221282243938637	-100.7751473277951	0	0.9399999998679526	0	44.08650283863133	-14.02252206379843	0	59.38784646530066	1.036513456488373	-7.124410780512171	0	0	44.08650283863133	-14.02252206379843	0	59.38784646530066	1.036513456488373	-7.124410780512171	0	0	-0.9913684674874766	0.4174140405918472	9.276740032613949	82.14658882535655	32.84372716139214	52.50070467791976	12.45132709722275	4.573332704033801	0	0	0	-8.051664701740139	0	85.50242194531549	4.573332704033801	0	0
